<?xml version="1.0" encoding="UTF-8"?>
<svg id="Layer_2" data-name="Layer 2" xmlns="http://www.w3.org/2000/svg" width="347.25" height="46.48" viewBox="0 0 347.25 46.48">
  <g id="Ebene_1" data-name="Ebene 1">
    <g>
      <path d="M15.99,19.17c-1.74,.03-3.3,.36-4.67,1.01-1.37,.64-2.36,1.61-2.96,2.89v13.59H2.62V14.19H7.89v4.8c.4-.77,.87-1.46,1.42-2.08,.54-.61,1.13-1.15,1.76-1.61,.63-.46,1.26-.81,1.91-1.05,.64-.24,1.26-.36,1.87-.36h.71c.16,0,.31,.01,.45,.04v5.23Z" style="fill: #13948b;"/>
      <path d="M28.52,37.09c-1.8,0-3.43-.31-4.89-.92s-2.7-1.45-3.73-2.51c-1.03-1.06-1.82-2.29-2.38-3.69-.56-1.4-.84-2.87-.84-4.42s.27-3.11,.81-4.52c.54-1.42,1.33-2.66,2.36-3.73,1.03-1.07,2.28-1.92,3.75-2.55,1.47-.63,3.12-.94,4.95-.94s3.47,.31,4.91,.94c1.44,.63,2.67,1.47,3.69,2.53,1.01,1.06,1.79,2.29,2.32,3.69,.53,1.4,.79,2.86,.79,4.37,0,.37,0,.73-.02,1.07-.01,.34-.05,.63-.11,.86H22.77c.09,.89,.3,1.67,.64,2.36s.79,1.27,1.33,1.76c.54,.49,1.16,.86,1.84,1.12,.69,.26,1.4,.39,2.14,.39,1.14,0,2.22-.28,3.24-.84,1.01-.56,1.71-1.29,2.08-2.21l4.93,1.37c-.83,1.72-2.15,3.12-3.97,4.22-1.82,1.1-3.98,1.65-6.5,1.65Zm5.83-13.55c-.14-1.69-.77-3.04-1.87-4.05-1.1-1.01-2.44-1.52-4.01-1.52-.77,0-1.49,.14-2.17,.41-.67,.27-1.27,.65-1.78,1.14-.51,.49-.94,1.07-1.27,1.76-.33,.69-.52,1.44-.58,2.27h11.66Z" style="fill: #13948b;"/>
      <path d="M78.69,36.66h-5.75v-12.61c0-1.8-.31-3.12-.92-3.94-.62-.83-1.47-1.24-2.55-1.24-1.14,0-2.22,.44-3.22,1.31-1,.87-1.72,2.01-2.14,3.41v13.08h-5.75v-12.61c0-1.8-.31-3.12-.92-3.94-.62-.83-1.47-1.24-2.55-1.24s-2.18,.43-3.19,1.29c-1.02,.86-1.74,1.99-2.17,3.39v13.12h-5.75V14.19h5.19v4.16c.83-1.46,1.97-2.58,3.41-3.37,1.44-.79,3.09-1.18,4.95-1.18s3.34,.46,4.37,1.37c1.03,.92,1.69,2.04,1.97,3.39,.91-1.54,2.07-2.72,3.47-3.54,1.4-.81,3-1.22,4.8-1.22,1.37,0,2.5,.26,3.39,.77,.89,.51,1.57,1.19,2.06,2.02,.49,.83,.82,1.77,1.01,2.83,.19,1.06,.28,2.13,.28,3.22v14.02Z" style="fill: #13948b;"/>
      <path d="M89.84,37.09c-1.09,0-2.1-.18-3.04-.54-.94-.36-1.76-.86-2.44-1.5-.69-.64-1.22-1.39-1.61-2.25s-.58-1.8-.58-2.83,.24-2.04,.71-2.94,1.13-1.67,1.97-2.29c.84-.63,1.85-1.12,3.02-1.48,1.17-.36,2.46-.54,3.86-.54,1,0,1.98,.09,2.94,.26,.96,.17,1.81,.41,2.55,.73v-1.29c0-1.49-.42-2.63-1.26-3.43-.84-.8-2.09-1.2-3.75-1.2-1.2,0-2.37,.21-3.52,.64-1.14,.43-2.32,1.06-3.52,1.89l-1.76-3.64c2.89-1.92,6-2.87,9.35-2.87s5.74,.79,7.53,2.38c1.79,1.59,2.68,3.88,2.68,6.88v6.99c0,.6,.11,1.03,.32,1.29,.21,.26,.56,.4,1.05,.43v4.89c-.97,.2-1.82,.3-2.53,.3-1.09,0-1.92-.24-2.51-.73-.59-.49-.95-1.13-1.09-1.93l-.13-1.24c-1,1.31-2.22,2.32-3.64,3-1.43,.69-2.96,1.03-4.59,1.03Zm1.63-4.2c.97,0,1.89-.17,2.77-.51s1.55-.8,2.04-1.37c.63-.49,.94-1.03,.94-1.63v-2.57c-.69-.26-1.43-.46-2.23-.62-.8-.16-1.57-.24-2.32-.24-1.49,0-2.7,.34-3.65,1.01-.94,.67-1.42,1.52-1.42,2.55,0,.97,.37,1.78,1.11,2.42,.74,.64,1.66,.96,2.74,.96Z" style="fill: #13948b;"/>
      <path d="M121.7,19.17c-1.74,.03-3.3,.36-4.67,1.01-1.37,.64-2.36,1.61-2.96,2.89v13.59h-5.75V14.19h5.27v4.8c.4-.77,.87-1.46,1.42-2.08,.54-.61,1.13-1.15,1.76-1.61,.63-.46,1.26-.81,1.91-1.05,.64-.24,1.26-.36,1.87-.36h.71c.16,0,.31,.01,.45,.04v5.23Z" style="fill: #13948b;"/>
      <path d="M140.26,36.66l-6.52-9.73-3.09,3.04v6.69h-5.75V5.36h5.75V24.36l9.01-10.12h6.13l-8.36,9.52,8.96,12.91h-6.13Z" style="fill: #13948b;"/>
      <path d="M147.6,27.49v-5.19h12.99v5.19h-12.99Z" style="fill: #13948b;"/>
      <path d="M179.11,35.5c-.77,.34-1.71,.69-2.83,1.03-1.11,.34-2.29,.51-3.52,.51-.8,0-1.55-.1-2.25-.3-.7-.2-1.31-.52-1.84-.96s-.95-1.01-1.26-1.72c-.32-.7-.47-1.55-.47-2.55v-12.91h-2.96v-4.42h2.96V6.9h5.75v7.29h4.72v4.42h-4.72v10.98c0,.8,.21,1.37,.62,1.69,.41,.33,.92,.49,1.52,.49s1.19-.1,1.76-.3c.57-.2,1.03-.37,1.37-.51l1.16,4.54Z" style="fill: #13948b;"/>
      <path d="M195.49,19.17c-1.74,.03-3.3,.36-4.67,1.01-1.37,.64-2.36,1.61-2.96,2.89v13.59h-5.75V14.19h5.27v4.8c.4-.77,.87-1.46,1.42-2.08,.54-.61,1.13-1.15,1.76-1.61,.63-.46,1.26-.81,1.91-1.05,.64-.24,1.26-.36,1.87-.36h.71c.16,0,.31,.01,.45,.04v5.23Z" style="fill: #13948b;"/>
      <path d="M204.54,37.09c-1.09,0-2.1-.18-3.04-.54-.94-.36-1.76-.86-2.44-1.5-.69-.64-1.22-1.39-1.61-2.25-.39-.86-.58-1.8-.58-2.83s.24-2.04,.71-2.94,1.13-1.67,1.97-2.29c.84-.63,1.85-1.12,3.02-1.48,1.17-.36,2.46-.54,3.86-.54,1,0,1.98,.09,2.94,.26,.96,.17,1.81,.41,2.55,.73v-1.29c0-1.49-.42-2.63-1.26-3.43-.84-.8-2.09-1.2-3.75-1.2-1.2,0-2.37,.21-3.52,.64s-2.32,1.06-3.52,1.89l-1.76-3.64c2.89-1.92,6-2.87,9.35-2.87s5.74,.79,7.53,2.38c1.79,1.59,2.68,3.88,2.68,6.88v6.99c0,.6,.11,1.03,.32,1.29,.21,.26,.56,.4,1.05,.43v4.89c-.97,.2-1.82,.3-2.53,.3-1.09,0-1.92-.24-2.51-.73-.59-.49-.95-1.13-1.09-1.93l-.13-1.24c-1,1.31-2.22,2.32-3.64,3-1.43,.69-2.96,1.03-4.59,1.03Zm1.63-4.2c.97,0,1.89-.17,2.77-.51s1.55-.8,2.04-1.37c.63-.49,.94-1.03,.94-1.63v-2.57c-.69-.26-1.43-.46-2.23-.62-.8-.16-1.57-.24-2.32-.24-1.49,0-2.7,.34-3.65,1.01-.94,.67-1.42,1.52-1.42,2.55,0,.97,.37,1.78,1.12,2.42,.74,.64,1.66,.96,2.74,.96Z" style="fill: #13948b;"/>
      <path d="M243.91,36.66h-5.75v-12.61c0-1.8-.32-3.12-.94-3.94-.63-.83-1.5-1.24-2.62-1.24-.57,0-1.16,.12-1.76,.34s-1.17,.55-1.69,.96-1.01,.91-1.44,1.48c-.43,.57-.74,1.2-.94,1.89v13.12h-5.75V14.19h5.19v4.16c.83-1.43,2.03-2.54,3.6-3.34,1.57-.8,3.34-1.2,5.32-1.2,1.4,0,2.54,.26,3.43,.77,.89,.51,1.57,1.19,2.06,2.02s.82,1.77,1.01,2.83c.19,1.06,.28,2.13,.28,3.22v14.02Z" style="fill: #13948b;"/>
      <path d="M257.41,37.09c-1.89,0-3.73-.3-5.53-.9-1.8-.6-3.34-1.46-4.63-2.57l2.14-3.6c1.37,.97,2.71,1.71,4.01,2.21,1.3,.5,2.59,.75,3.88,.75,1.14,0,2.04-.21,2.7-.64s.99-1.04,.99-1.84-.39-1.39-1.16-1.76c-.77-.37-2.03-.8-3.77-1.29-1.46-.4-2.7-.79-3.73-1.16-1.03-.37-1.86-.79-2.49-1.27-.63-.47-1.09-1.01-1.37-1.63-.29-.61-.43-1.35-.43-2.21,0-1.14,.22-2.17,.67-3.09s1.06-1.69,1.87-2.34c.8-.64,1.74-1.14,2.81-1.48s2.24-.51,3.5-.51c1.69,0,3.27,.24,4.74,.73,1.47,.49,2.82,1.27,4.05,2.36l-2.32,3.47c-1.14-.86-2.25-1.49-3.32-1.89-1.07-.4-2.14-.6-3.19-.6-.97,0-1.79,.2-2.44,.6-.66,.4-.99,1.04-.99,1.93,0,.4,.08,.73,.24,.99,.16,.26,.41,.49,.75,.69s.79,.39,1.35,.58c.56,.19,1.25,.38,2.08,.58,1.54,.4,2.87,.8,3.97,1.2,1.1,.4,2,.86,2.7,1.37,.7,.51,1.21,1.11,1.54,1.78,.33,.67,.49,1.48,.49,2.42,0,2.2-.82,3.94-2.44,5.21-1.63,1.27-3.85,1.91-6.65,1.91Z" style="fill: #13948b;"/>
      <path d="M270.19,5.36h5.75V29.46c0,.83,.2,1.47,.6,1.93,.4,.46,.97,.69,1.72,.69,.34,0,.72-.06,1.14-.17s.81-.26,1.18-.43l.77,4.37c-.77,.37-1.67,.66-2.7,.86-1.03,.2-1.96,.3-2.79,.3-1.8,0-3.2-.48-4.18-1.44-.99-.96-1.48-2.32-1.48-4.09V5.36Z" style="fill: #13948b;"/>
      <path d="M289.96,37.09c-1.09,0-2.1-.18-3.04-.54-.94-.36-1.76-.86-2.44-1.5-.69-.64-1.22-1.39-1.61-2.25-.39-.86-.58-1.8-.58-2.83s.24-2.04,.71-2.94,1.13-1.67,1.97-2.29c.84-.63,1.85-1.12,3.02-1.48,1.17-.36,2.46-.54,3.86-.54,1,0,1.98,.09,2.94,.26,.96,.17,1.81,.41,2.55,.73v-1.29c0-1.49-.42-2.63-1.26-3.43-.84-.8-2.09-1.2-3.75-1.2-1.2,0-2.37,.21-3.52,.64s-2.32,1.06-3.52,1.89l-1.76-3.64c2.89-1.92,6-2.87,9.35-2.87s5.74,.79,7.53,2.38c1.79,1.59,2.68,3.88,2.68,6.88v6.99c0,.6,.11,1.03,.32,1.29,.21,.26,.56,.4,1.05,.43v4.89c-.97,.2-1.82,.3-2.53,.3-1.09,0-1.92-.24-2.51-.73-.59-.49-.95-1.13-1.09-1.93l-.13-1.24c-1,1.31-2.22,2.32-3.64,3-1.43,.69-2.96,1.03-4.59,1.03Zm1.63-4.2c.97,0,1.89-.17,2.77-.51s1.55-.8,2.04-1.37c.63-.49,.94-1.03,.94-1.63v-2.57c-.69-.26-1.43-.46-2.23-.62-.8-.16-1.57-.24-2.32-.24-1.49,0-2.7,.34-3.65,1.01-.94,.67-1.42,1.52-1.42,2.55,0,.97,.37,1.78,1.12,2.42,.74,.64,1.66,.96,2.74,.96Z" style="fill: #13948b;"/>
      <path d="M321.73,35.5c-.77,.34-1.71,.69-2.83,1.03-1.11,.34-2.29,.51-3.52,.51-.8,0-1.55-.1-2.25-.3-.7-.2-1.31-.52-1.84-.96s-.95-1.01-1.26-1.72c-.32-.7-.47-1.55-.47-2.55v-12.91h-2.96v-4.42h2.96V6.9h5.75v7.29h4.72v4.42h-4.72v10.98c0,.8,.21,1.37,.62,1.69,.41,.33,.92,.49,1.52,.49s1.19-.1,1.76-.3c.57-.2,1.03-.37,1.37-.51l1.16,4.54Z" style="fill: #13948b;"/>
      <path d="M334.6,37.09c-1.8,0-3.43-.31-4.89-.92s-2.7-1.45-3.73-2.51c-1.03-1.06-1.82-2.29-2.38-3.69-.56-1.4-.84-2.87-.84-4.42s.27-3.11,.82-4.52c.54-1.42,1.33-2.66,2.36-3.73,1.03-1.07,2.28-1.92,3.75-2.55,1.47-.63,3.12-.94,4.95-.94s3.47,.31,4.91,.94,2.67,1.47,3.69,2.53c1.01,1.06,1.79,2.29,2.32,3.69,.53,1.4,.79,2.86,.79,4.37,0,.37,0,.73-.02,1.07-.01,.34-.05,.63-.11,.86h-17.37c.09,.89,.3,1.67,.64,2.36,.34,.69,.79,1.27,1.33,1.76,.54,.49,1.16,.86,1.84,1.12,.69,.26,1.4,.39,2.14,.39,1.14,0,2.22-.28,3.24-.84,1.01-.56,1.71-1.29,2.08-2.21l4.93,1.37c-.83,1.72-2.15,3.12-3.97,4.22s-3.98,1.65-6.5,1.65Zm5.83-13.55c-.14-1.69-.76-3.04-1.87-4.05s-2.44-1.52-4.01-1.52c-.77,0-1.49,.14-2.17,.41-.67,.27-1.26,.65-1.78,1.14-.51,.49-.94,1.07-1.26,1.76-.33,.69-.52,1.44-.58,2.27h11.66Z" style="fill: #13948b;"/>
    </g>
  </g>
</svg>