<?xml version="1.0" encoding="UTF-8"?>
<svg id="Layer_2" data-name="Layer 2" xmlns="http://www.w3.org/2000/svg" width="847.25" height="113.41" viewBox="0 0 847.25 113.41">
  <g id="Ebene_1" data-name="Ebene 1">
    <g>
      <path d="M39.02,46.77c-4.25,.07-8.06,.89-11.4,2.46s-5.75,3.92-7.22,7.06v33.17H6.38V34.63h12.87v11.72c.98-1.88,2.13-3.57,3.45-5.07,1.32-1.5,2.75-2.81,4.29-3.92,1.53-1.12,3.09-1.97,4.66-2.56,1.57-.59,3.09-.89,4.55-.89h1.73c.38,0,.75,.04,1.1,.1v12.76Z" style="fill: #13948b;"/>
      <path d="M69.58,90.5c-4.39,0-8.37-.75-11.93-2.25s-6.59-3.54-9.1-6.12c-2.51-2.58-4.45-5.58-5.81-9-1.36-3.42-2.04-7.01-2.04-10.78s.66-7.59,1.99-11.04c1.32-3.45,3.24-6.49,5.75-9.1,2.51-2.62,5.56-4.69,9.15-6.23,3.59-1.53,7.62-2.3,12.08-2.3s8.46,.77,11.98,2.3c3.52,1.54,6.52,3.59,9,6.17,2.47,2.58,4.36,5.58,5.65,9,1.29,3.42,1.94,6.98,1.94,10.67,0,.91-.02,1.78-.05,2.62-.04,.84-.12,1.54-.26,2.09H55.56c.21,2.16,.73,4.08,1.57,5.75,.84,1.67,1.92,3.1,3.24,4.29,1.32,1.19,2.82,2.09,4.5,2.72,1.67,.63,3.42,.94,5.23,.94,2.79,0,5.42-.68,7.9-2.04,2.47-1.36,4.17-3.16,5.07-5.39l12.03,3.35c-2.03,4.19-5.25,7.62-9.68,10.31-4.43,2.69-9.71,4.03-15.85,4.03Zm14.23-33.06c-.35-4.11-1.87-7.41-4.55-9.89-2.69-2.48-5.95-3.71-9.78-3.71-1.88,0-3.64,.33-5.28,.99-1.64,.66-3.09,1.59-4.34,2.77-1.26,1.19-2.29,2.62-3.09,4.29-.8,1.67-1.27,3.52-1.41,5.54h28.46Z" style="fill: #13948b;"/>
      <path d="M191.99,89.45h-14.02v-30.76c0-4.39-.75-7.6-2.25-9.63-1.5-2.02-3.58-3.03-6.22-3.03-2.79,0-5.41,1.06-7.85,3.19-2.44,2.13-4.19,4.9-5.23,8.32v31.91h-14.02v-30.76c0-4.39-.75-7.6-2.25-9.63-1.5-2.02-3.58-3.03-6.22-3.03s-5.32,1.05-7.79,3.14c-2.48,2.09-4.24,4.85-5.28,8.27v32.02h-14.02V34.63h12.66v10.15c2.02-3.56,4.79-6.29,8.32-8.21,3.52-1.92,7.55-2.88,12.08-2.88s8.16,1.12,10.67,3.35c2.51,2.23,4.12,4.99,4.81,8.26,2.23-3.77,5.06-6.64,8.47-8.63,3.42-1.99,7.32-2.98,11.72-2.98,3.35,0,6.1,.63,8.26,1.88,2.16,1.25,3.84,2.89,5.02,4.92,1.19,2.02,2,4.33,2.46,6.91,.45,2.58,.68,5.2,.68,7.85v34.21Z" style="fill: #13948b;"/>
      <path d="M219.19,90.5c-2.65,0-5.13-.44-7.43-1.31s-4.29-2.09-5.96-3.66c-1.67-1.57-2.98-3.4-3.92-5.49-.94-2.09-1.41-4.39-1.41-6.91s.58-4.97,1.73-7.17c1.15-2.2,2.75-4.06,4.81-5.6,2.06-1.53,4.52-2.74,7.38-3.61,2.86-.87,6-1.31,9.42-1.31,2.44,0,4.83,.21,7.17,.63,2.34,.42,4.41,1.01,6.22,1.78v-3.14c0-3.63-1.03-6.42-3.09-8.37-2.06-1.95-5.11-2.93-9.16-2.93-2.93,0-5.79,.52-8.58,1.57-2.79,1.05-5.65,2.58-8.58,4.6l-4.29-8.89c7.04-4.67,14.65-7.01,22.81-7.01s14,1.94,18.36,5.81c4.36,3.87,6.54,9.47,6.54,16.79v17.05c0,1.46,.26,2.51,.79,3.14s1.38,.98,2.56,1.05v11.93c-2.37,.49-4.43,.73-6.17,.73-2.65,0-4.69-.59-6.12-1.78-1.43-1.18-2.32-2.75-2.67-4.71l-.31-3.03c-2.44,3.21-5.41,5.65-8.89,7.32-3.49,1.67-7.22,2.51-11.19,2.51Zm3.98-10.25c2.37,0,4.62-.42,6.75-1.26,2.13-.84,3.78-1.95,4.97-3.35,1.53-1.19,2.3-2.51,2.3-3.98v-6.28c-1.67-.63-3.49-1.13-5.44-1.52-1.95-.38-3.84-.58-5.65-.58-3.63,0-6.59,.82-8.89,2.46-2.3,1.64-3.45,3.71-3.45,6.23,0,2.37,.91,4.34,2.72,5.91,1.81,1.57,4.04,2.35,6.7,2.35Z" style="fill: #13948b;"/>
      <path d="M296.93,46.77c-4.26,.07-8.06,.89-11.4,2.46s-5.75,3.92-7.22,7.06v33.17h-14.02V34.63h12.87v11.72c.98-1.88,2.13-3.57,3.45-5.07,1.32-1.5,2.75-2.81,4.29-3.92,1.53-1.12,3.09-1.97,4.66-2.56,1.57-.59,3.09-.89,4.55-.89h1.73c.38,0,.75,.04,1.1,.1v12.76Z" style="fill: #13948b;"/>
      <path d="M342.23,89.45l-15.9-23.75-7.53,7.43v16.32h-14.02V13.08h14.02V59.43l21.97-24.69h14.96l-20.4,23.23,21.87,31.49h-14.96Z" style="fill: #13948b;"/>
      <path d="M360.12,67.06v-12.66h31.7v12.66h-31.7Z" style="fill: #13948b;"/>
      <path d="M437.02,86.63c-1.88,.84-4.18,1.67-6.91,2.51s-5.58,1.26-8.58,1.26c-1.95,0-3.78-.25-5.49-.73-1.71-.49-3.21-1.27-4.5-2.35-1.29-1.08-2.32-2.47-3.09-4.18-.77-1.71-1.15-3.78-1.15-6.23v-31.49h-7.22v-10.78h7.22V16.84h14.02v17.79h11.51v10.78h-11.51v26.78c0,1.95,.5,3.33,1.52,4.13,1.01,.8,2.25,1.2,3.71,1.2s2.89-.24,4.29-.73c1.39-.49,2.51-.91,3.35-1.25l2.83,11.09Z" style="fill: #13948b;"/>
      <path d="M476.98,46.77c-4.26,.07-8.06,.89-11.4,2.46s-5.75,3.92-7.22,7.06v33.17h-14.02V34.63h12.87v11.72c.98-1.88,2.13-3.57,3.45-5.07,1.32-1.5,2.75-2.81,4.29-3.92,1.53-1.12,3.09-1.97,4.66-2.56,1.57-.59,3.09-.89,4.55-.89h1.73c.38,0,.75,.04,1.1,.1v12.76Z" style="fill: #13948b;"/>
      <path d="M499.06,90.5c-2.65,0-5.13-.44-7.43-1.31s-4.29-2.09-5.96-3.66c-1.67-1.57-2.98-3.4-3.92-5.49-.94-2.09-1.41-4.39-1.41-6.91s.58-4.97,1.73-7.17c1.15-2.2,2.75-4.06,4.81-5.6,2.06-1.53,4.52-2.74,7.38-3.61,2.86-.87,6-1.31,9.42-1.31,2.44,0,4.83,.21,7.17,.63,2.34,.42,4.41,1.01,6.22,1.78v-3.14c0-3.63-1.03-6.42-3.09-8.37-2.06-1.95-5.11-2.93-9.16-2.93-2.93,0-5.79,.52-8.58,1.57-2.79,1.05-5.65,2.58-8.58,4.6l-4.29-8.89c7.04-4.67,14.65-7.01,22.81-7.01s14,1.94,18.36,5.81c4.36,3.87,6.54,9.47,6.54,16.79v17.05c0,1.46,.26,2.51,.79,3.14s1.38,.98,2.56,1.05v11.93c-2.37,.49-4.43,.73-6.17,.73-2.65,0-4.69-.59-6.12-1.78-1.43-1.18-2.32-2.75-2.67-4.71l-.31-3.03c-2.44,3.21-5.41,5.65-8.89,7.32-3.49,1.67-7.22,2.51-11.19,2.51Zm3.98-10.25c2.37,0,4.62-.42,6.75-1.26,2.13-.84,3.78-1.95,4.97-3.35,1.53-1.19,2.3-2.51,2.3-3.98v-6.28c-1.67-.63-3.49-1.13-5.44-1.52-1.95-.38-3.84-.58-5.65-.58-3.63,0-6.59,.82-8.89,2.46-2.3,1.64-3.45,3.71-3.45,6.23,0,2.37,.91,4.34,2.72,5.91,1.81,1.57,4.04,2.35,6.7,2.35Z" style="fill: #13948b;"/>
      <path d="M595.11,89.45h-14.02v-30.76c0-4.39-.77-7.6-2.3-9.63-1.54-2.02-3.66-3.03-6.38-3.03-1.4,0-2.83,.28-4.29,.84-1.46,.56-2.84,1.34-4.13,2.35-1.29,1.01-2.46,2.21-3.5,3.61-1.05,1.4-1.82,2.93-2.3,4.6v32.02h-14.02V34.63h12.66v10.15c2.02-3.49,4.95-6.21,8.79-8.16,3.83-1.95,8.16-2.93,12.97-2.93,3.42,0,6.21,.63,8.37,1.88,2.16,1.25,3.83,2.89,5.02,4.92,1.19,2.02,2,4.33,2.46,6.91,.45,2.58,.68,5.2,.68,7.85v34.21Z" style="fill: #13948b;"/>
      <path d="M628.06,90.5c-4.6,0-9.1-.73-13.5-2.2-4.39-1.46-8.16-3.56-11.3-6.28l5.23-8.79c3.35,2.37,6.61,4.17,9.78,5.39,3.17,1.22,6.33,1.83,9.47,1.83,2.79,0,4.99-.52,6.59-1.57s2.41-2.54,2.41-4.5-.94-3.38-2.83-4.29c-1.88-.91-4.95-1.95-9.21-3.14-3.56-.98-6.59-1.92-9.1-2.83-2.51-.91-4.54-1.94-6.07-3.09-1.54-1.15-2.65-2.47-3.35-3.98-.7-1.5-1.05-3.3-1.05-5.39,0-2.79,.54-5.3,1.62-7.53,1.08-2.23,2.6-4.13,4.55-5.7,1.95-1.57,4.24-2.77,6.85-3.61,2.62-.84,5.46-1.26,8.53-1.26,4.12,0,7.97,.59,11.56,1.78,3.59,1.19,6.89,3.1,9.89,5.75l-5.65,8.47c-2.79-2.09-5.49-3.63-8.11-4.6-2.62-.98-5.21-1.46-7.79-1.46-2.37,0-4.36,.49-5.96,1.46-1.61,.98-2.41,2.55-2.41,4.71,0,.98,.19,1.78,.58,2.41,.38,.63,.99,1.19,1.83,1.67,.84,.49,1.94,.96,3.29,1.41,1.36,.45,3.05,.92,5.07,1.41,3.77,.98,6.99,1.95,9.68,2.93,2.68,.98,4.88,2.09,6.59,3.35,1.71,1.26,2.96,2.7,3.77,4.34,.8,1.64,1.2,3.61,1.2,5.91,0,5.37-1.99,9.61-5.96,12.71s-9.38,4.66-16.22,4.66Z" style="fill: #13948b;"/>
      <path d="M659.24,13.08h14.02v58.8c0,2.02,.49,3.59,1.46,4.71,.98,1.12,2.37,1.67,4.19,1.67,.84,0,1.76-.14,2.77-.42,1.01-.28,1.97-.63,2.88-1.05l1.88,10.67c-1.88,.91-4.08,1.61-6.59,2.09s-4.78,.73-6.8,.73c-4.39,0-7.79-1.17-10.2-3.5-2.41-2.34-3.61-5.67-3.61-9.99V13.08Z" style="fill: #13948b;"/>
      <path d="M707.47,90.5c-2.65,0-5.13-.44-7.43-1.31s-4.29-2.09-5.96-3.66c-1.67-1.57-2.98-3.4-3.92-5.49-.94-2.09-1.41-4.39-1.41-6.91s.58-4.97,1.73-7.17c1.15-2.2,2.75-4.06,4.81-5.6,2.06-1.53,4.52-2.74,7.38-3.61,2.86-.87,6-1.31,9.42-1.31,2.44,0,4.83,.21,7.17,.63,2.34,.42,4.41,1.01,6.22,1.78v-3.14c0-3.63-1.03-6.42-3.09-8.37-2.06-1.95-5.11-2.93-9.16-2.93-2.93,0-5.79,.52-8.58,1.57-2.79,1.05-5.65,2.58-8.58,4.6l-4.29-8.89c7.04-4.67,14.65-7.01,22.81-7.01s14,1.94,18.36,5.81c4.36,3.87,6.54,9.47,6.54,16.79v17.05c0,1.46,.26,2.51,.79,3.14s1.38,.98,2.56,1.05v11.93c-2.37,.49-4.43,.73-6.17,.73-2.65,0-4.69-.59-6.12-1.78-1.43-1.18-2.32-2.75-2.67-4.71l-.31-3.03c-2.44,3.21-5.41,5.65-8.89,7.32-3.49,1.67-7.22,2.51-11.19,2.51Zm3.98-10.25c2.37,0,4.62-.42,6.75-1.26,2.13-.84,3.78-1.95,4.97-3.35,1.53-1.19,2.3-2.51,2.3-3.98v-6.28c-1.67-.63-3.49-1.13-5.44-1.52-1.95-.38-3.84-.58-5.65-.58-3.63,0-6.59,.82-8.89,2.46-2.3,1.64-3.45,3.71-3.45,6.23,0,2.37,.91,4.34,2.72,5.91,1.81,1.57,4.04,2.35,6.7,2.35Z" style="fill: #13948b;"/>
      <path d="M785,86.63c-1.88,.84-4.18,1.67-6.91,2.51s-5.58,1.26-8.58,1.26c-1.95,0-3.78-.25-5.49-.73-1.71-.49-3.21-1.27-4.5-2.35-1.29-1.08-2.32-2.47-3.09-4.18-.77-1.71-1.15-3.78-1.15-6.23v-31.49h-7.22v-10.78h7.22V16.84h14.02v17.79h11.51v10.78h-11.51v26.78c0,1.95,.5,3.33,1.52,4.13,1.01,.8,2.25,1.2,3.71,1.2s2.89-.24,4.29-.73c1.39-.49,2.51-.91,3.35-1.25l2.83,11.09Z" style="fill: #13948b;"/>
      <path d="M816.38,90.5c-4.39,0-8.37-.75-11.93-2.25-3.56-1.5-6.59-3.54-9.1-6.12-2.51-2.58-4.45-5.58-5.81-9-1.36-3.42-2.04-7.01-2.04-10.78s.66-7.59,1.99-11.04c1.32-3.45,3.24-6.49,5.75-9.1,2.51-2.62,5.56-4.69,9.15-6.23,3.59-1.53,7.62-2.3,12.08-2.3s8.46,.77,11.98,2.3c3.52,1.54,6.52,3.59,9,6.17,2.48,2.58,4.36,5.58,5.65,9,1.29,3.42,1.94,6.98,1.94,10.67,0,.91-.02,1.78-.05,2.62-.04,.84-.12,1.54-.26,2.09h-42.37c.21,2.16,.73,4.08,1.57,5.75,.84,1.67,1.92,3.1,3.24,4.29,1.32,1.19,2.83,2.09,4.5,2.72,1.67,.63,3.42,.94,5.23,.94,2.79,0,5.42-.68,7.9-2.04,2.47-1.36,4.17-3.16,5.07-5.39l12.03,3.35c-2.02,4.19-5.25,7.62-9.68,10.31-4.43,2.69-9.71,4.03-15.85,4.03Zm14.23-33.06c-.35-4.11-1.87-7.41-4.55-9.89-2.69-2.48-5.95-3.71-9.78-3.71-1.88,0-3.65,.33-5.28,.99-1.64,.66-3.09,1.59-4.34,2.77-1.26,1.19-2.29,2.62-3.09,4.29-.8,1.67-1.27,3.52-1.41,5.54h28.46Z" style="fill: #13948b;"/>
    </g>
  </g>
</svg>